<svg xmlns="http://www.w3.org/2000/svg" viewBox="0 0 64 64" width="64" height="64">
  <!-- 背景グラデーション -->
  <defs>
    <linearGradient id="bgGradient" x1="0%" y1="0%" x2="100%" y2="100%">
      <stop offset="0%" style="stop-color:#667eea;stop-opacity:1" />
      <stop offset="100%" style="stop-color:#764ba2;stop-opacity:1" />
    </linearGradient>
    <linearGradient id="noteGradient" x1="0%" y1="0%" x2="100%" y2="100%">
      <stop offset="0%" style="stop-color:#ffffff;stop-opacity:1" />
      <stop offset="100%" style="stop-color:#f0f0f0;stop-opacity:1" />
    </linearGradient>
  </defs>
  
  <!-- 背景円 -->
  <circle cx="32" cy="32" r="30" fill="url(#bgGradient)" stroke="#4a5568" stroke-width="2"/>
  
  <!-- 音符のメイン部分 -->
  <ellipse cx="24" cy="45" rx="6" ry="4" fill="url(#noteGradient)" transform="rotate(-20 24 45)"/>
  
  <!-- 音符の棒 -->
  <rect x="29" y="20" width="3" height="25" fill="url(#noteGradient)" rx="1.5"/>
  
  <!-- 音符の旗 -->
  <path d="M32 20 Q45 15 45 25 Q45 30 32 28 Z" fill="url(#noteGradient)"/>
  
  <!-- リピートアイコン（小さく） -->
  <g transform="translate(38,38) scale(0.8)">
    <path d="M2 8 L8 2 L8 5 L14 5 Q16 5 16 7 Q16 9 14 9 L10 9" 
          stroke="url(#noteGradient)" stroke-width="2" fill="none" stroke-linecap="round"/>
    <path d="M14 16 L8 22 L8 19 L2 19 Q0 19 0 17 Q0 15 2 15 L6 15" 
          stroke="url(#noteGradient)" stroke-width="2" fill="none" stroke-linecap="round"/>
  </g>
  
  <!-- 音波エフェクト -->
  <g opacity="0.6">
    <circle cx="32" cy="32" r="36" fill="none" stroke="#ffffff" stroke-width="1" opacity="0.3"/>
    <circle cx="32" cy="32" r="40" fill="none" stroke="#ffffff" stroke-width="0.5" opacity="0.2"/>
  </g>
</svg>